<svg data-v-fde0c5aa="" xmlns="http://www.w3.org/2000/svg" viewBox="0 0 300 300" class="iconLeft"><!----><defs data-v-fde0c5aa=""><!----></defs><rect data-v-fde0c5aa="" fill="transparent" x="0" y="0" width="300px" height="300px" class="logo-background-square"></rect><defs data-v-fde0c5aa=""><!----></defs><g data-v-fde0c5aa="" id="a7da6ae6-f4b6-487d-ad40-5a6dff49c83d" fill="#000000" transform="matrix(1.75118475847666,0,0,1.75118475847666,127.31273083143529,133.50383985906007)"><path d="M5.69 11.46L5.69 8.83L5.69 8.83Q5.69 8.33 5.64 7.96L5.64 7.96L5.64 7.96Q5.59 7.59 5.45 7.35L5.45 7.35L5.45 7.35Q5.31 7.12 5.07 7.01L5.07 7.01L5.07 7.01Q4.83 6.90 4.44 6.90L4.44 6.90L4.44 6.90Q4.07 6.90 3.75 7.01L3.75 7.01L3.75 7.01Q3.43 7.13 3.18 7.31L3.18 7.31L3.18 7.31Q2.93 7.49 2.75 7.69L2.75 7.69L2.75 7.69Q2.56 7.90 2.45 8.07L2.45 8.07L2.45 11.56L2.45 11.56Q2.45 11.67 2.50 11.73L2.50 11.73L2.50 11.73Q2.55 11.79 2.67 11.82L2.67 11.82L2.67 11.82Q2.78 11.85 2.98 11.85L2.98 11.85L2.98 11.85Q3.19 11.85 3.49 11.85L3.49 11.85L3.49 12.46L3.49 12.46Q3.29 12.46 3.11 12.46L3.11 12.46L3.11 12.46Q2.93 12.46 2.73 12.46L2.73 12.46L2.73 12.46Q2.53 12.46 2.31 12.46L2.31 12.46L2.31 12.46Q2.09 12.46 1.83 12.45L1.83 12.45L1.83 12.45Q1.59 12.45 1.39 12.45L1.39 12.45L1.39 12.45Q1.18 12.46 0.99 12.46L0.99 12.46L0.99 12.46Q0.81 12.46 0.63 12.46L0.63 12.46L0.63 12.46Q0.45 12.46 0.27 12.46L0.27 12.46L0.27 11.85L0.27 11.85Q0.65 11.85 0.86 11.84L0.86 11.84L0.86 11.84Q1.07 11.82 1.17 11.78L1.17 11.78L1.17 11.78Q1.27 11.74 1.29 11.68L1.29 11.68L1.29 11.68Q1.31 11.61 1.31 11.52L1.31 11.52L1.31 4.51L1.31 4.51Q1.31 4.41 1.24 4.35L1.24 4.35L1.24 4.35Q1.17 4.29 1.04 4.27L1.04 4.27L1.04 4.27Q0.90 4.25 0.72 4.24L0.72 4.24L0.72 4.24Q0.53 4.24 0.31 4.24L0.31 4.24L0.31 3.62L0.31 3.62Q0.43 3.62 0.56 3.63L0.56 3.63L0.56 3.63Q0.70 3.63 0.88 3.63L0.88 3.63L0.88 3.63Q1.25 3.63 1.64 3.62L1.64 3.62L1.64 3.62Q2.03 3.61 2.45 3.60L2.45 3.60L2.45 3.60Q2.45 3.99 2.45 4.45L2.45 4.45L2.45 4.45Q2.45 4.91 2.45 5.38L2.45 5.38L2.45 5.38Q2.45 5.86 2.45 6.32L2.45 6.32L2.45 6.32Q2.45 6.78 2.45 7.18L2.45 7.18L2.45 7.18Q2.95 6.67 3.54 6.43L3.54 6.43L3.54 6.43Q4.14 6.19 4.87 6.19L4.87 6.19L4.87 6.19Q5.50 6.19 5.89 6.38L5.89 6.38L5.89 6.38Q6.28 6.58 6.49 6.98L6.49 6.98L6.49 6.98Q6.71 7.37 6.78 7.96L6.78 7.96L6.78 7.96Q6.85 8.54 6.85 9.33L6.85 9.33L6.85 11.44L6.85 11.44Q6.85 11.60 6.90 11.68L6.90 11.68L6.90 11.68Q6.95 11.76 7.06 11.80L7.06 11.80L7.06 11.80Q7.17 11.84 7.36 11.85L7.36 11.85L7.36 11.85Q7.54 11.85 7.82 11.85L7.82 11.85L7.82 12.46L7.82 12.46Q7.64 12.46 7.46 12.46L7.46 12.46L7.46 12.46Q7.29 12.46 7.10 12.46L7.10 12.46L7.10 12.46Q6.92 12.46 6.71 12.46L6.71 12.46L6.71 12.46Q6.50 12.46 6.25 12.45L6.25 12.45L6.25 12.45Q5.76 12.45 5.40 12.46L5.40 12.46L5.40 12.46Q5.03 12.46 4.66 12.46L4.66 12.46L4.66 11.85L4.66 11.85Q4.96 11.85 5.16 11.83L5.16 11.83L5.16 11.83Q5.36 11.82 5.48 11.78L5.48 11.78L5.48 11.78Q5.60 11.74 5.65 11.67L5.65 11.67L5.65 11.67Q5.69 11.59 5.69 11.46L5.69 11.46ZM14.12 8.37L14.12 10.93L14.12 10.93Q14.12 11.29 14.15 11.47L14.15 11.47L14.15 11.47Q14.17 11.66 14.24 11.75L14.24 11.75L14.24 11.75Q14.31 11.83 14.43 11.84L14.43 11.84L14.43 11.84Q14.56 11.85 14.77 11.85L14.77 11.85L15.07 11.85L15.07 12.46L15.07 12.46Q14.53 12.46 14.00 12.47L14.00 12.47L14.00 12.47Q13.47 12.48 13.02 12.49L13.02 12.49L13.02 11.55L13.02 11.55Q12.61 12.08 12.04 12.34L12.04 12.34L12.04 12.34Q11.48 12.61 10.73 12.61L10.73 12.61L10.73 12.61Q10.23 12.61 9.84 12.47L9.84 12.47L9.84 12.47Q9.44 12.33 9.16 12.08L9.16 12.08L9.16 12.08Q8.88 11.83 8.73 11.49L8.73 11.49L8.73 11.49Q8.57 11.15 8.57 10.74L8.57 10.74L8.57 10.74Q8.57 10.30 8.75 9.94L8.75 9.94L8.75 9.94Q8.93 9.58 9.27 9.33L9.27 9.33L9.27 9.33Q9.61 9.08 10.10 8.94L10.10 8.94L10.10 8.94Q10.59 8.80 11.22 8.80L11.22 8.80L11.22 8.80Q11.65 8.80 12.09 8.86L12.09 8.86L12.09 8.86Q12.52 8.93 12.97 9.04L12.97 9.04L12.97 8.06L12.97 8.06Q12.97 7.44 12.56 7.11L12.56 7.11L12.56 7.11Q12.15 6.78 11.29 6.78L11.29 6.78L11.29 6.78Q10.58 6.78 10.17 7.06L10.17 7.06L10.17 7.06Q9.76 7.33 9.63 7.92L9.63 7.92L9.00 7.84L9.08 6.64L9.08 6.64Q9.52 6.44 10.11 6.31L10.11 6.31L10.11 6.31Q10.69 6.19 11.42 6.19L11.42 6.19L11.42 6.19Q12.15 6.19 12.66 6.32L12.66 6.32L12.66 6.32Q13.17 6.45 13.50 6.71L13.50 6.71L13.50 6.71Q13.82 6.98 13.97 7.39L13.97 7.39L13.97 7.39Q14.12 7.81 14.12 8.37L14.12 8.37ZM11.48 9.37L11.48 9.37L11.48 9.37Q11.07 9.37 10.74 9.46L10.74 9.46L10.74 9.46Q10.41 9.56 10.18 9.73L10.18 9.73L10.18 9.73Q9.95 9.90 9.83 10.14L9.83 10.14L9.83 10.14Q9.71 10.39 9.71 10.71L9.71 10.71L9.71 10.71Q9.71 10.99 9.81 11.20L9.81 11.20L9.81 11.20Q9.91 11.42 10.09 11.57L10.09 11.57L10.09 11.57Q10.27 11.72 10.52 11.81L10.52 11.81L10.52 11.81Q10.77 11.89 11.07 11.89L11.07 11.89L11.07 11.89Q11.40 11.89 11.74 11.79L11.74 11.79L11.74 11.79Q12.08 11.68 12.35 11.49L12.35 11.49L12.35 11.49Q12.63 11.29 12.80 11.00L12.80 11.00L12.80 11.00Q12.97 10.70 12.97 10.28L12.97 10.28L12.97 9.61L12.97 9.61Q12.56 9.50 12.20 9.43L12.20 9.43L12.20 9.43Q11.83 9.37 11.48 9.37ZM21.48 6.39L21.48 8.52L20.81 8.52L20.81 8.52Q20.77 7.70 20.32 7.30L20.32 7.30L20.32 7.30Q19.87 6.90 19.07 6.90L19.07 6.90L19.07 6.90Q18.58 6.90 18.20 7.07L18.20 7.07L18.20 7.07Q17.81 7.25 17.55 7.57L17.55 7.57L17.55 7.57Q17.29 7.89 17.15 8.35L17.15 8.35L17.15 8.35Q17.01 8.82 17.01 9.40L17.01 9.40L17.01 9.40Q17.01 9.99 17.15 10.43L17.15 10.43L17.15 10.43Q17.29 10.87 17.56 11.20L17.56 11.20L17.56 11.20Q17.83 11.53 18.22 11.71L18.22 11.71L18.22 11.71Q18.60 11.89 19.08 11.89L19.08 11.89L19.08 11.89Q19.76 11.89 20.22 11.55L20.22 11.55L20.22 11.55Q20.69 11.22 20.87 10.55L20.87 10.55L21.67 10.68L21.67 10.68Q21.56 11.16 21.32 11.52L21.32 11.52L21.32 11.52Q21.09 11.89 20.74 12.11L20.74 12.11L20.74 12.11Q20.39 12.34 19.94 12.47L19.94 12.47L19.94 12.47Q19.49 12.61 18.95 12.61L18.95 12.61L18.95 12.61Q18.23 12.61 17.65 12.38L17.65 12.38L17.65 12.38Q17.07 12.15 16.66 11.75L16.66 11.75L16.66 11.75Q16.25 11.35 16.02 10.76L16.02 10.76L16.02 10.76Q15.80 10.17 15.80 9.45L15.80 9.45L15.80 9.45Q15.80 8.76 16.02 8.17L16.02 8.17L16.02 8.17Q16.24 7.58 16.64 7.14L16.64 7.14L16.64 7.14Q17.04 6.71 17.59 6.45L17.59 6.45L17.59 6.45Q18.14 6.19 18.81 6.19L18.81 6.19L18.81 6.19Q19.08 6.19 19.35 6.22L19.35 6.22L19.35 6.22Q19.61 6.25 19.85 6.34L19.85 6.34L19.85 6.34Q20.10 6.42 20.31 6.56L20.31 6.56L20.31 6.56Q20.51 6.71 20.68 6.92L20.68 6.92L20.85 6.38L20.85 6.38Q20.88 6.38 20.97 6.38L20.97 6.38L20.97 6.38Q21.06 6.38 21.16 6.38L21.16 6.38L21.16 6.38Q21.27 6.38 21.36 6.39L21.36 6.39L21.36 6.39Q21.45 6.39 21.48 6.39L21.48 6.39ZM22.43 12.46L22.43 11.85L22.43 11.85Q22.72 11.85 22.92 11.84L22.92 11.84L22.92 11.84Q23.12 11.83 23.25 11.78L23.25 11.78L23.25 11.78Q23.37 11.74 23.43 11.65L23.43 11.65L23.43 11.65Q23.48 11.55 23.48 11.39L23.48 11.39L23.48 4.58L23.48 4.58Q23.48 4.45 23.42 4.39L23.42 4.39L23.42 4.39Q23.36 4.32 23.23 4.29L23.23 4.29L23.23 4.29Q23.11 4.26 22.91 4.25L22.91 4.25L22.91 4.25Q22.72 4.25 22.46 4.25L22.46 4.25L22.46 3.63L22.46 3.63Q22.83 3.63 23.12 3.63L23.12 3.63L23.12 3.63Q23.41 3.63 23.66 3.63L23.66 3.63L23.66 3.63Q23.91 3.62 24.14 3.62L24.14 3.62L24.14 3.62Q24.37 3.61 24.62 3.60L24.62 3.60L24.62 9.07L26.47 7.68L26.47 7.68Q27.16 7.19 27.16 7.05L27.16 7.05L27.16 7.05Q27.16 7.01 27.10 6.99L27.10 6.99L27.10 6.99Q27.05 6.97 26.96 6.96L26.96 6.96L26.96 6.96Q26.87 6.95 26.74 6.95L26.74 6.95L26.74 6.95Q26.61 6.95 26.48 6.95L26.48 6.95L26.50 6.34L26.50 6.34Q26.85 6.35 27.13 6.35L27.13 6.35L27.13 6.35Q27.41 6.36 27.64 6.36L27.64 6.36L27.64 6.36Q28.02 6.36 28.42 6.35L28.42 6.35L28.42 6.35Q28.82 6.35 29.35 6.34L29.35 6.34L29.35 6.95L29.35 6.95Q29.07 6.95 28.91 6.96L28.91 6.96L28.91 6.96Q28.75 6.97 28.60 7.03L28.60 7.03L28.60 7.03Q28.46 7.09 28.26 7.23L28.26 7.23L28.26 7.23Q28.06 7.36 27.71 7.63L27.71 7.63L25.79 9.05L28.45 11.50L28.45 11.50Q28.70 11.73 28.89 11.80L28.89 11.80L28.89 11.80Q29.09 11.86 29.31 11.86L29.31 11.86L29.31 11.86Q29.39 11.86 29.46 11.86L29.46 11.86L29.46 11.86Q29.54 11.85 29.63 11.85L29.63 11.85L29.63 12.46L29.63 12.46Q29.30 12.46 28.97 12.46L28.97 12.46L28.97 12.46Q28.64 12.45 28.26 12.45L28.26 12.45L28.26 12.45Q28.01 12.45 27.79 12.45L27.79 12.45L27.79 12.45Q27.58 12.46 27.37 12.46L27.37 12.46L27.37 12.46Q27.17 12.46 26.96 12.46L26.96 12.46L26.96 12.46Q26.76 12.46 26.55 12.46L26.55 12.46L26.55 11.85L26.55 11.85Q26.91 11.85 27.07 11.84L27.07 11.84L27.07 11.84Q27.22 11.83 27.22 11.74L27.22 11.74L27.22 11.74Q27.22 11.67 27.12 11.56L27.12 11.56L27.12 11.56Q27.02 11.46 26.86 11.31L26.86 11.31L24.92 9.52L24.62 9.71L24.62 11.40L24.62 11.40Q24.62 11.54 24.66 11.63L24.66 11.63L24.66 11.63Q24.70 11.72 24.81 11.77L24.81 11.77L24.81 11.77Q24.93 11.82 25.14 11.84L25.14 11.84L25.14 11.84Q25.35 11.85 25.69 11.85L25.69 11.85L25.69 12.46L25.69 12.46Q25.33 12.46 24.97 12.46L24.97 12.46L24.97 12.46Q24.60 12.46 24.13 12.45L24.13 12.45L24.13 12.45Q24.10 12.45 23.89 12.45L23.89 12.45L23.89 12.45Q23.68 12.46 23.41 12.46L23.41 12.46L23.41 12.46Q23.15 12.46 22.87 12.46L22.87 12.46L22.87 12.46Q22.59 12.46 22.43 12.46L22.43 12.46ZM30.00 3.66L37.32 3.66L37.32 5.89L36.54 5.89L36.54 5.56L36.54 5.56Q36.54 5.13 36.51 4.90L36.51 4.90L36.51 4.90Q36.48 4.68 36.42 4.57L36.42 4.57L36.42 4.57Q36.36 4.46 36.27 4.45L36.27 4.45L36.27 4.45Q36.18 4.43 36.05 4.43L36.05 4.43L32.42 4.43L32.42 7.59L34.78 7.59L34.78 7.59Q34.85 7.59 34.90 7.58L34.90 7.58L34.90 7.58Q34.95 7.57 34.98 7.50L34.98 7.50L34.98 7.50Q35.01 7.44 35.04 7.29L35.04 7.29L35.04 7.29Q35.06 7.14 35.08 6.85L35.08 6.85L35.63 6.85L35.63 9.05L35.08 9.05L35.08 9.05Q35.06 8.77 35.03 8.62L35.03 8.62L35.03 8.62Q35.01 8.46 34.97 8.39L34.97 8.39L34.97 8.39Q34.92 8.32 34.87 8.31L34.87 8.31L34.87 8.31Q34.82 8.29 34.74 8.29L34.74 8.29L32.42 8.29L32.42 11.70L36.11 11.70L36.11 11.70Q36.27 11.70 36.36 11.63L36.36 11.63L36.36 11.63Q36.46 11.57 36.50 11.39L36.50 11.39L36.50 11.39Q36.54 11.21 36.56 10.90L36.56 10.90L36.56 10.90Q36.57 10.58 36.57 10.08L36.57 10.08L37.34 10.08L37.34 12.46L29.95 12.46L29.95 11.79L30.73 11.79L30.73 11.79Q30.90 11.79 30.99 11.74L30.99 11.74L30.99 11.74Q31.08 11.69 31.12 11.61L31.12 11.61L31.12 11.61Q31.16 11.53 31.17 11.43L31.17 11.43L31.17 11.43Q31.17 11.33 31.17 11.22L31.17 11.22L31.17 4.97L31.17 4.97Q31.17 4.81 31.17 4.69L31.17 4.69L31.17 4.69Q31.17 4.57 31.13 4.48L31.13 4.48L31.13 4.48Q31.09 4.40 31.00 4.36L31.00 4.36L31.00 4.36Q30.91 4.32 30.73 4.32L30.73 4.32L30.00 4.32L30.00 3.66ZM38.20 12.46L38.20 11.85L38.20 11.85Q38.58 11.85 38.79 11.84L38.79 11.84L38.79 11.84Q39.01 11.83 39.11 11.79L39.11 11.79L39.11 11.79Q39.21 11.74 39.23 11.68L39.23 11.68L39.23 11.68Q39.25 11.61 39.25 11.50L39.25 11.50L39.25 7.18L39.25 7.18Q39.25 7.10 39.21 7.05L39.21 7.05L39.21 7.05Q39.16 7 39.05 6.98L39.05 6.98L39.05 6.98Q38.94 6.96 38.74 6.96L38.74 6.96L38.74 6.96Q38.55 6.95 38.23 6.95L38.23 6.95L38.23 6.34L38.23 6.34Q38.84 6.34 39.35 6.34L39.35 6.34L39.35 6.34Q39.87 6.33 40.36 6.31L40.36 6.31L40.36 7.27L40.36 7.27Q40.82 6.75 41.43 6.47L41.43 6.47L41.43 6.47Q42.03 6.19 42.72 6.19L42.72 6.19L42.72 6.19Q43.72 6.19 44.25 6.73L44.25 6.73L44.25 6.73Q44.78 7.27 44.78 8.43L44.78 8.43L44.78 11.57L44.78 11.57Q44.78 11.68 44.83 11.74L44.83 11.74L44.83 11.74Q44.88 11.79 44.99 11.82L44.99 11.82L44.99 11.82Q45.10 11.84 45.29 11.84L45.29 11.84L45.29 11.84Q45.47 11.85 45.74 11.85L45.74 11.85L45.74 12.46L45.74 12.46Q45.58 12.46 45.41 12.46L45.41 12.46L45.41 12.46Q45.25 12.46 45.08 12.46L45.08 12.46L45.08 12.46Q44.91 12.46 44.71 12.46L44.71 12.46L44.71 12.46Q44.52 12.46 44.28 12.45L44.28 12.45L44.28 12.45Q43.78 12.45 43.38 12.46L43.38 12.46L43.38 12.46Q42.98 12.46 42.59 12.46L42.59 12.46L42.59 11.85L42.59 11.85Q42.98 11.85 43.19 11.84L43.19 11.84L43.19 11.84Q43.40 11.83 43.50 11.79L43.50 11.79L43.50 11.79Q43.59 11.75 43.61 11.69L43.61 11.69L43.61 11.69Q43.63 11.63 43.63 11.54L43.63 11.54L43.63 8.83L43.63 8.83Q43.63 8.37 43.58 7.99L43.58 7.99L43.58 7.99Q43.52 7.62 43.38 7.38L43.38 7.38L43.38 7.38Q43.24 7.14 43.00 7.02L43.00 7.02L43.00 7.02Q42.76 6.90 42.38 6.90L42.38 6.90L42.38 6.90Q42.01 6.90 41.70 7.02L41.70 7.02L41.70 7.02Q41.39 7.14 41.15 7.30L41.15 7.30L41.15 7.30Q40.91 7.47 40.73 7.66L40.73 7.66L40.73 7.66Q40.54 7.85 40.41 8.01L40.41 8.01L40.41 8.01Q40.39 8.52 40.39 9.05L40.39 9.05L40.39 11.53L40.39 11.53Q40.39 11.66 40.45 11.72L40.45 11.72L40.45 11.72Q40.51 11.79 40.64 11.82L40.64 11.82L40.64 11.82Q40.76 11.85 40.96 11.85L40.96 11.85L40.96 11.85Q41.15 11.85 41.43 11.85L41.43 11.85L41.43 12.46L41.43 12.46Q41.25 12.46 41.08 12.46L41.08 12.46L41.08 12.46Q40.91 12.46 40.73 12.46L40.73 12.46L40.73 12.46Q40.55 12.46 40.34 12.46L40.34 12.46L40.34 12.46Q40.13 12.46 39.89 12.45L39.89 12.45L39.89 12.45Q39.38 12.45 38.98 12.46L38.98 12.46L38.98 12.46Q38.58 12.46 38.20 12.46L38.20 12.46ZM49.72 6.90L49.72 6.90L49.72 6.90Q49.25 6.90 48.87 7.07L48.87 7.07L48.87 7.07Q48.49 7.25 48.22 7.57L48.22 7.57L48.22 7.57Q47.95 7.89 47.80 8.36L47.80 8.36L47.80 8.36Q47.65 8.83 47.65 9.38L47.65 9.38L47.65 9.38Q47.65 9.93 47.80 10.37L47.80 10.37L47.80 10.37Q47.95 10.81 48.22 11.13L48.22 11.13L48.22 11.13Q48.49 11.44 48.87 11.61L48.87 11.61L48.87 11.61Q49.25 11.78 49.73 11.78L49.73 11.78L49.73 11.78Q50.20 11.78 50.59 11.60L50.59 11.60L50.59 11.60Q50.97 11.42 51.24 11.10L51.24 11.10L51.24 11.10Q51.51 10.78 51.66 10.33L51.66 10.33L51.66 10.33Q51.81 9.88 51.81 9.32L51.81 9.32L51.81 9.32Q51.81 8.79 51.66 8.34L51.66 8.34L51.66 8.34Q51.51 7.90 51.24 7.57L51.24 7.57L51.24 7.57Q50.96 7.25 50.58 7.07L50.58 7.07L50.58 7.07Q50.19 6.90 49.72 6.90ZM51.86 7.44L51.86 6.32L51.86 6.32Q52.17 6.33 52.47 6.34L52.47 6.34L52.47 6.34Q52.77 6.35 53.07 6.35L53.07 6.35L53.07 6.35Q53.34 6.35 53.54 6.35L53.54 6.35L53.54 6.35Q53.74 6.34 53.94 6.34L53.94 6.34L53.94 6.95L53.94 6.95Q53.57 6.95 53.36 6.98L53.36 6.98L53.36 6.98Q53.15 7 53.05 7.06L53.05 7.06L53.05 7.06Q52.95 7.12 52.93 7.22L52.93 7.22L52.93 7.22Q52.91 7.31 52.91 7.47L52.91 7.47L52.91 12.04L52.91 12.04Q52.91 13.00 52.68 13.64L52.68 13.64L52.68 13.64Q52.45 14.28 52.02 14.67L52.02 14.67L52.02 14.67Q51.60 15.05 50.99 15.21L50.99 15.21L50.99 15.21Q50.37 15.37 49.60 15.37L49.60 15.37L49.60 15.37Q48.88 15.37 48.23 15.22L48.23 15.22L48.23 15.22Q47.58 15.07 47.02 14.75L47.02 14.75L47.07 13.31L47.07 13.31Q47.09 13.32 47.19 13.32L47.19 13.32L47.19 13.32Q47.26 13.32 47.35 13.32L47.35 13.32L47.35 13.32Q47.44 13.32 47.52 13.31L47.52 13.31L47.52 13.31Q47.61 13.31 47.70 13.30L47.70 13.30L47.70 13.30Q47.76 13.71 47.92 13.98L47.92 13.98L47.92 13.98Q48.07 14.25 48.31 14.40L48.31 14.40L48.31 14.40Q48.56 14.56 48.88 14.63L48.88 14.63L48.88 14.63Q49.21 14.69 49.61 14.69L49.61 14.69L49.61 14.69Q50.04 14.69 50.43 14.58L50.43 14.58L50.43 14.58Q50.83 14.46 51.12 14.22L51.12 14.22L51.12 14.22Q51.42 13.97 51.60 13.58L51.60 13.58L51.60 13.58Q51.78 13.18 51.78 12.61L51.78 12.61L51.78 11.35L51.78 11.35Q51.39 11.89 50.79 12.18L50.79 12.18L50.79 12.18Q50.20 12.46 49.46 12.46L49.46 12.46L49.46 12.46Q48.78 12.46 48.23 12.24L48.23 12.24L48.23 12.24Q47.68 12.02 47.29 11.61L47.29 11.61L47.29 11.61Q46.89 11.21 46.68 10.64L46.68 10.64L46.68 10.64Q46.46 10.07 46.46 9.37L46.46 9.37L46.46 9.37Q46.46 8.67 46.69 8.08L46.69 8.08L46.69 8.08Q46.91 7.49 47.30 7.07L47.30 7.07L47.30 7.07Q47.70 6.65 48.25 6.42L48.25 6.42L48.25 6.42Q48.81 6.19 49.48 6.19L49.48 6.19L49.48 6.19Q50.24 6.19 50.84 6.50L50.84 6.50L50.84 6.50Q51.43 6.82 51.86 7.44L51.86 7.44ZM56.48 3.60L56.48 11.38L56.48 11.38Q56.48 11.55 56.54 11.64L56.54 11.64L56.54 11.64Q56.61 11.74 56.74 11.79L56.74 11.79L56.74 11.79Q56.88 11.83 57.07 11.84L57.07 11.84L57.07 11.84Q57.26 11.85 57.53 11.85L57.53 11.85L57.53 12.46L57.53 12.46Q57.34 12.46 57.16 12.46L57.16 12.46L57.16 12.46Q56.97 12.46 56.78 12.46L56.78 12.46L56.78 12.46Q56.58 12.46 56.37 12.46L56.37 12.46L56.37 12.46Q56.16 12.46 55.90 12.45L55.90 12.45L55.90 12.45Q55.66 12.45 55.45 12.45L55.45 12.45L55.45 12.45Q55.23 12.46 55.04 12.46L55.04 12.46L55.04 12.46Q54.85 12.46 54.67 12.46L54.67 12.46L54.67 12.46Q54.50 12.46 54.31 12.46L54.31 12.46L54.31 12.46Q54.31 12.41 54.31 12.33L54.31 12.33L54.31 12.33Q54.31 12.24 54.31 12.16L54.31 12.16L54.31 12.16Q54.30 12.07 54.30 11.99L54.30 11.99L54.30 11.99Q54.30 11.91 54.30 11.85L54.30 11.85L54.30 11.85Q54.69 11.85 54.90 11.82L54.90 11.82L54.90 11.82Q55.11 11.79 55.21 11.72L55.21 11.72L55.21 11.72Q55.30 11.65 55.32 11.55L55.32 11.55L55.32 11.55Q55.34 11.44 55.34 11.30L55.34 11.30L55.34 4.59L55.34 4.59Q55.34 4.46 55.27 4.40L55.27 4.40L55.27 4.40Q55.21 4.33 55.08 4.30L55.08 4.30L55.08 4.30Q54.95 4.27 54.76 4.26L54.76 4.26L54.76 4.26Q54.58 4.25 54.34 4.25L54.34 4.25L54.34 3.63L54.34 3.63Q54.88 3.63 55.38 3.62L55.38 3.62L55.38 3.62Q55.89 3.62 56.48 3.60L56.48 3.60ZM59.62 3.47L59.62 3.47L59.62 3.47Q59.96 3.47 60.16 3.64L60.16 3.64L60.16 3.64Q60.36 3.81 60.36 4.10L60.36 4.10L60.36 4.10Q60.36 4.40 60.17 4.58L60.17 4.58L60.17 4.58Q59.97 4.75 59.62 4.75L59.62 4.75L59.62 4.75Q59.28 4.75 59.09 4.58L59.09 4.58L59.09 4.58Q58.90 4.41 58.90 4.10L58.90 4.10L58.90 4.10Q58.90 3.81 59.09 3.64L59.09 3.64L59.09 3.64Q59.28 3.47 59.62 3.47ZM60.34 6.31L60.34 11.40L60.34 11.40Q60.34 11.56 60.40 11.65L60.40 11.65L60.40 11.65Q60.45 11.74 60.57 11.79L60.57 11.79L60.57 11.79Q60.70 11.83 60.89 11.84L60.89 11.84L60.89 11.84Q61.09 11.85 61.37 11.85L61.37 11.85L61.37 12.46L61.37 12.46Q61.19 12.46 60.89 12.46L60.89 12.46L60.89 12.46Q60.59 12.46 60.29 12.46L60.29 12.46L60.29 12.46Q59.99 12.46 59.75 12.45L59.75 12.45L59.75 12.45Q59.52 12.45 59.48 12.45L59.48 12.45L59.48 12.45Q59.09 12.45 58.79 12.46L58.79 12.46L58.79 12.46Q58.50 12.46 58.18 12.46L58.18 12.46L58.18 11.85L58.18 11.85Q58.55 11.85 58.75 11.83L58.75 11.83L58.75 11.83Q58.96 11.81 59.06 11.76L59.06 11.76L59.06 11.76Q59.16 11.72 59.18 11.63L59.18 11.63L59.18 11.63Q59.19 11.55 59.19 11.41L59.19 11.41L59.19 7.20L59.19 7.20Q59.19 7.10 59.14 7.05L59.14 7.05L59.14 7.05Q59.09 7.01 58.97 6.98L58.97 6.98L58.97 6.98Q58.86 6.96 58.67 6.96L58.67 6.96L58.67 6.96Q58.48 6.95 58.21 6.95L58.21 6.95L58.21 6.34L58.21 6.34Q58.80 6.34 59.31 6.34L59.31 6.34L59.31 6.34Q59.82 6.33 60.34 6.31L60.34 6.31ZM67.08 6.34L67.08 8.24L66.44 8.24L66.44 8.24Q66.41 7.55 65.98 7.18L65.98 7.18L65.98 7.18Q65.56 6.81 64.75 6.81L64.75 6.81L64.75 6.81Q64.41 6.81 64.16 6.89L64.16 6.89L64.16 6.89Q63.90 6.97 63.73 7.11L63.73 7.11L63.73 7.11Q63.56 7.25 63.48 7.43L63.48 7.43L63.48 7.43Q63.40 7.61 63.40 7.80L63.40 7.80L63.40 7.80Q63.40 8.01 63.51 8.17L63.51 8.17L63.51 8.17Q63.62 8.33 63.83 8.46L63.83 8.46L63.83 8.46Q64.03 8.58 64.32 8.67L64.32 8.67L64.32 8.67Q64.60 8.77 64.94 8.86L64.94 8.86L64.94 8.86Q65.50 9.00 65.94 9.16L65.94 9.16L65.94 9.16Q66.39 9.32 66.70 9.53L66.70 9.53L66.70 9.53Q67.01 9.75 67.18 10.05L67.18 10.05L67.18 10.05Q67.35 10.36 67.35 10.80L67.35 10.80L67.35 10.80Q67.35 11.24 67.18 11.57L67.18 11.57L67.18 11.57Q67.00 11.91 66.67 12.14L66.67 12.14L66.67 12.14Q66.35 12.37 65.89 12.49L65.89 12.49L65.89 12.49Q65.43 12.61 64.87 12.61L64.87 12.61L64.87 12.61Q64.16 12.61 63.69 12.43L63.69 12.43L63.69 12.43Q63.22 12.26 62.92 11.89L62.92 11.89L62.85 12.46L62.85 12.46Q62.69 12.46 62.55 12.45L62.55 12.45L62.55 12.45Q62.41 12.45 62.25 12.46L62.25 12.46L62.25 10.43L62.91 10.43L62.91 10.43Q62.95 11.22 63.42 11.59L63.42 11.59L63.42 11.59Q63.90 11.96 64.72 11.96L64.72 11.96L64.72 11.96Q65.06 11.96 65.35 11.88L65.35 11.88L65.35 11.88Q65.65 11.81 65.85 11.69L65.85 11.69L65.85 11.69Q66.06 11.57 66.17 11.39L66.17 11.39L66.17 11.39Q66.29 11.21 66.29 10.96L66.29 10.96L66.29 10.96Q66.29 10.70 66.13 10.51L66.13 10.51L66.13 10.51Q65.97 10.33 65.70 10.19L65.70 10.19L65.70 10.19Q65.43 10.05 65.07 9.94L65.07 9.94L65.07 9.94Q64.71 9.84 64.31 9.72L64.31 9.72L64.31 9.72Q63.83 9.57 63.46 9.41L63.46 9.41L63.46 9.41Q63.10 9.25 62.85 9.04L62.85 9.04L62.85 9.04Q62.60 8.84 62.48 8.57L62.48 8.57L62.48 8.57Q62.36 8.29 62.36 7.92L62.36 7.92L62.36 7.92Q62.36 7.57 62.51 7.25L62.51 7.25L62.51 7.25Q62.67 6.94 62.95 6.70L62.95 6.70L62.95 6.70Q63.24 6.45 63.65 6.32L63.65 6.32L63.65 6.32Q64.05 6.19 64.56 6.19L64.56 6.19L64.56 6.19Q65.12 6.19 65.62 6.35L65.62 6.35L65.62 6.35Q66.12 6.51 66.42 6.83L66.42 6.83L66.42 6.83Q66.42 6.82 66.45 6.75L66.45 6.75L66.45 6.75Q66.47 6.68 66.50 6.59L66.50 6.59L66.50 6.59Q66.53 6.49 66.57 6.34L66.57 6.34L66.57 6.34Q66.69 6.35 66.80 6.35L66.80 6.35L66.80 6.35Q66.90 6.35 66.98 6.35L66.98 6.35L66.98 6.35Q67.05 6.34 67.08 6.34L67.08 6.34ZM73.64 11.46L73.64 8.83L73.64 8.83Q73.64 8.33 73.59 7.96L73.59 7.96L73.59 7.96Q73.54 7.59 73.40 7.35L73.40 7.35L73.40 7.35Q73.26 7.12 73.02 7.01L73.02 7.01L73.02 7.01Q72.78 6.90 72.39 6.90L72.39 6.90L72.39 6.90Q72.02 6.90 71.70 7.01L71.70 7.01L71.70 7.01Q71.38 7.13 71.13 7.31L71.13 7.31L71.13 7.31Q70.88 7.49 70.70 7.69L70.70 7.69L70.70 7.69Q70.51 7.90 70.40 8.07L70.40 8.07L70.40 11.56L70.40 11.56Q70.40 11.67 70.45 11.73L70.45 11.73L70.45 11.73Q70.50 11.79 70.62 11.82L70.62 11.82L70.62 11.82Q70.73 11.85 70.93 11.85L70.93 11.85L70.93 11.85Q71.13 11.85 71.44 11.85L71.44 11.85L71.44 12.46L71.44 12.46Q71.24 12.46 71.06 12.46L71.06 12.46L71.06 12.46Q70.88 12.46 70.68 12.46L70.68 12.46L70.68 12.46Q70.48 12.46 70.26 12.46L70.26 12.46L70.26 12.46Q70.04 12.46 69.78 12.45L69.78 12.45L69.78 12.45Q69.54 12.45 69.34 12.45L69.34 12.45L69.34 12.45Q69.13 12.46 68.94 12.46L68.94 12.46L68.94 12.46Q68.76 12.46 68.58 12.46L68.58 12.46L68.58 12.46Q68.40 12.46 68.22 12.46L68.22 12.46L68.22 11.85L68.22 11.85Q68.60 11.85 68.81 11.84L68.81 11.84L68.81 11.84Q69.02 11.82 69.12 11.78L69.12 11.78L69.12 11.78Q69.22 11.74 69.24 11.68L69.24 11.68L69.24 11.68Q69.26 11.61 69.26 11.52L69.26 11.52L69.26 4.51L69.26 4.51Q69.26 4.41 69.19 4.35L69.19 4.35L69.19 4.35Q69.12 4.29 68.98 4.27L68.98 4.27L68.98 4.27Q68.85 4.25 68.67 4.24L68.67 4.24L68.67 4.24Q68.48 4.24 68.26 4.24L68.26 4.24L68.26 3.62L68.26 3.62Q68.38 3.62 68.51 3.63L68.51 3.63L68.51 3.63Q68.65 3.63 68.82 3.63L68.82 3.63L68.82 3.63Q69.20 3.63 69.59 3.62L69.59 3.62L69.59 3.62Q69.98 3.61 70.40 3.60L70.40 3.60L70.40 3.60Q70.40 3.99 70.40 4.45L70.40 4.45L70.40 4.45Q70.40 4.91 70.40 5.38L70.40 5.38L70.40 5.38Q70.40 5.86 70.40 6.32L70.40 6.32L70.40 6.32Q70.40 6.78 70.40 7.18L70.40 7.18L70.40 7.18Q70.90 6.67 71.49 6.43L71.49 6.43L71.49 6.43Q72.09 6.19 72.82 6.19L72.82 6.19L72.82 6.19Q73.45 6.19 73.84 6.38L73.84 6.38L73.84 6.38Q74.23 6.58 74.44 6.98L74.44 6.98L74.44 6.98Q74.66 7.37 74.73 7.96L74.73 7.96L74.73 7.96Q74.80 8.54 74.80 9.33L74.80 9.33L74.80 11.44L74.80 11.44Q74.80 11.60 74.85 11.68L74.85 11.68L74.85 11.68Q74.89 11.76 75.01 11.80L75.01 11.80L75.01 11.80Q75.12 11.84 75.30 11.85L75.30 11.85L75.30 11.85Q75.49 11.85 75.77 11.85L75.77 11.85L75.77 12.46L75.77 12.46Q75.58 12.46 75.41 12.46L75.41 12.46L75.41 12.46Q75.24 12.46 75.05 12.46L75.05 12.46L75.05 12.46Q74.87 12.46 74.66 12.46L74.66 12.46L74.66 12.46Q74.45 12.46 74.20 12.45L74.20 12.45L74.20 12.45Q73.71 12.45 73.35 12.46L73.35 12.46L73.35 12.46Q72.98 12.46 72.61 12.46L72.61 12.46L72.61 11.85L72.61 11.85Q72.91 11.85 73.11 11.83L73.11 11.83L73.11 11.83Q73.31 11.82 73.43 11.78L73.43 11.78L73.43 11.78Q73.55 11.74 73.60 11.67L73.60 11.67L73.60 11.67Q73.64 11.59 73.64 11.46L73.64 11.46Z"></path></g><defs data-v-fde0c5aa=""><linearGradient data-v-fde0c5aa="" gradientTransform="rotate(25)" id="cbc6de56-fa25-46d4-a0a5-658f62645ee0" x1="0%" y1="0%" x2="100%" y2="0%"><stop data-v-fde0c5aa="" offset="0%" stop-color="#288642" stop-opacity="1"></stop><stop data-v-fde0c5aa="" offset="100%" stop-color="#27FDFD" stop-opacity="1"></stop></linearGradient></defs><g data-v-fde0c5aa="" id="4f3e045e-d2aa-49a4-99c3-5b2e190f38bb" stroke="none" fill="url(#cbc6de56-fa25-46d4-a0a5-658f62645ee0)" transform="matrix(0.7514096718877825,0,0,0.7514096718877825,39.82191590516492,112.42951497241066)"><path d="M80.125 58.631c1.27 0 2.896-.839 3.633-1.874l2.973-4.179H57.938l-4.305 6.053h26.492zM86.686 49.528c1.27 0 2.896-.839 3.633-1.875l2.972-4.179H64.444l-4.305 6.054h26.547zM13.27 52.578l2.973 4.179c.735 1.035 2.363 1.874 3.632 1.874h26.492l-4.305-6.053H13.27zM6.71 43.475l2.972 4.179c.735 1.036 2.363 1.875 3.632 1.875H39.86l-4.305-6.054H6.71z"></path><path d="M56.482 43.475H43.518l-6.421-9.103H.237l2.97 4.179c.737 1.036 2.363 1.875 3.635 1.875h30.254L49.99 58.631l12.914-18.206h30.255c1.271 0 2.897-.839 3.635-1.875l2.97-4.179H62.903l-6.421 9.104z"></path><path d="M57.79 33.538l-2.638-3.536c-.33-.443-1.045-.802-1.598-.802H47.23l-2.104 11.225h9.734l-1.282-6.887h4.212zM45.389 61.681L38.885 70.8h22.227l-6.483-9.119z"></path></g><!----></svg>