<svg data-v-423bf9ae="" xmlns="http://www.w3.org/2000/svg" viewBox="0 0 143.54853724721215 60" class="icon"><!----><!----><!----><!----><g data-v-423bf9ae="" id="3282b400-210d-4cb4-bc47-d99b0005d307" transform="matrix(1.4423074806935998,0,0,1.4423074806935998,-0.34182781312301813,-42.11537678566319)" stroke="none" fill="black"><path d="M80.125 58.631c1.27 0 2.896-.839 3.633-1.874l2.973-4.179H57.938l-4.305 6.053h26.492zM86.686 49.528c1.27 0 2.896-.839 3.633-1.875l2.972-4.179H64.444l-4.305 6.054h26.547zM13.27 52.578l2.973 4.179c.735 1.035 2.363 1.874 3.632 1.874h26.492l-4.305-6.053H13.27zM6.71 43.475l2.972 4.179c.735 1.036 2.363 1.875 3.632 1.875H39.86l-4.305-6.054H6.71z"></path><path d="M56.482 43.475H43.518l-6.421-9.103H.237l2.97 4.179c.737 1.036 2.363 1.875 3.635 1.875h30.254L49.99 58.631l12.914-18.206h30.255c1.271 0 2.897-.839 3.635-1.875l2.97-4.179H62.903l-6.421 9.104z"></path><path d="M57.79 33.538l-2.638-3.536c-.33-.443-1.045-.802-1.598-.802H47.23l-2.104 11.225h9.734l-1.282-6.887h4.212zM45.389 61.681L38.885 70.8h22.227l-6.483-9.119z"></path></g><!----></svg>