<svg data-v-fde0c5aa="" xmlns="http://www.w3.org/2000/svg" viewBox="0 0 300 300" class="icon"><!----><defs data-v-fde0c5aa=""><!----></defs><rect data-v-fde0c5aa="" fill="transparent" x="0" y="0" width="300px" height="300px" class="logo-background-square"></rect><!----><defs data-v-fde0c5aa=""><linearGradient data-v-fde0c5aa="" gradientTransform="rotate(25)" id="5d2346a0-0379-43af-80d1-76b3edcd4698" x1="0%" y1="0%" x2="100%" y2="0%"><stop data-v-fde0c5aa="" offset="0%" stop-color="#288642" stop-opacity="1"></stop><stop data-v-fde0c5aa="" offset="100%" stop-color="#27FDFD" stop-opacity="1"></stop></linearGradient></defs><g data-v-fde0c5aa="" id="6275f430-e67e-42f9-917a-bdc909e3ce6e" fill="url(#5d2346a0-0379-43af-80d1-76b3edcd4698)" stroke="none" transform="matrix(2.2104554448098663,0,0,2.2104554448098663,39.47612205193835,39.477223543397514)"><path d="M80.125 58.631c1.27 0 2.896-.839 3.633-1.874l2.973-4.179H57.938l-4.305 6.053h26.492zM86.686 49.528c1.27 0 2.896-.839 3.633-1.875l2.972-4.179H64.444l-4.305 6.054h26.547zM13.27 52.578l2.973 4.179c.735 1.035 2.363 1.874 3.632 1.874h26.492l-4.305-6.053H13.27zM6.71 43.475l2.972 4.179c.735 1.036 2.363 1.875 3.632 1.875H39.86l-4.305-6.054H6.71z"></path><path d="M56.482 43.475H43.518l-6.421-9.103H.237l2.97 4.179c.737 1.036 2.363 1.875 3.635 1.875h30.254L49.99 58.631l12.914-18.206h30.255c1.271 0 2.897-.839 3.635-1.875l2.97-4.179H62.903l-6.421 9.104z"></path><path d="M57.79 33.538l-2.638-3.536c-.33-.443-1.045-.802-1.598-.802H47.23l-2.104 11.225h9.734l-1.282-6.887h4.212zM45.389 61.681L38.885 70.8h22.227l-6.483-9.119z"></path></g><!----></svg>